<svg width="300" height="200" viewBox="0 0 300 200" fill="none" xmlns="http://www.w3.org/2000/svg">
<path d="M123.2 86.7999C119.6 67.5999 104.9 52.8999 85.7 49.2999C85.3 49.1999 85 49.1999 84.6 49.0999C82.8 48.7999 81.1 50.2999 81.1 52.0999V91.2999H120.3C122.2 91.2999 123.6 89.6999 123.3 87.7999C123.3 87.4999 123.3 87.1999 123.2 86.7999Z" fill="#CF9E76"/>
<path d="M71.7 54.8998C48.7 56.5998 30.9 76.4998 32.3 100.2C33.6 121.5 50.9 138.8 72.2 140.1C95.9 141.6 115.8 123.7 117.5 100.7C117.6 98.8998 116.2 97.3998 114.4 97.3998H75V57.8998C75 56.1998 73.5 54.6998 71.7 54.8998Z" fill="#CF9E76"/>
<path d="M75 59.2998C53.9 59.2998 36.8 76.3998 36.8 97.4998C36.8 118.6 53.9 135.7 75 135.7C96.1 135.7 113.2 118.6 113.2 97.4998H75V59.2998Z" fill="#DFB38B"/>
<path d="M81.1 53.1997V91.3997H119.3C119.3 71.0997 101.4 53.1997 81.1 53.1997Z" fill="#DFB38B"/>
<path d="M114.6 91.4C113.3 76.2 102.8 63.6 88.6 59.4L85.8 58.7C84.3 58.4 82.8 58.2 81.2 58V91.4H114.6Z" fill="#FDD870"/>
<path d="M75 97.4999V63.8999C56.5 63.8999 41.4 78.8999 41.4 97.4999C41.4 116.1 56.4 131.1 75 131.1C93.6 131.1 108.6 116.1 108.6 97.4999H75Z" fill="#FDD870"/>
<path d="M64.3 123.5C66.0121 123.5 67.4 122.112 67.4 120.4C67.4 118.688 66.0121 117.3 64.3 117.3C62.5879 117.3 61.2 118.688 61.2 120.4C61.2 122.112 62.5879 123.5 64.3 123.5Z" fill="#ED6E55"/>
<path d="M90.3 85.3001C92.0121 85.3001 93.4 83.9122 93.4 82.2001C93.4 80.488 92.0121 79.1001 90.3 79.1001C88.5879 79.1001 87.2 80.488 87.2 82.2001C87.2 83.9122 88.5879 85.3001 90.3 85.3001Z" fill="#B27946"/>
<path d="M102.5 74.5999C104.212 74.5999 105.6 73.212 105.6 71.4999C105.6 69.7878 104.212 68.3999 102.5 68.3999C100.788 68.3999 99.4 69.7878 99.4 71.4999C99.4 73.212 100.788 74.5999 102.5 74.5999Z" fill="#ED6E55"/>
<path d="M68.9 103.6C70.6121 103.6 72 102.212 72 100.5C72 98.7878 70.6121 97.3999 68.9 97.3999C67.1879 97.3999 65.8 98.7878 65.8 100.5C65.8 102.212 67.1879 103.6 68.9 103.6Z" fill="#B27946"/>
<path d="M96.4 112.8C98.1121 112.8 99.5 111.412 99.5 109.7C99.5 107.988 98.1121 106.6 96.4 106.6C94.6879 106.6 93.3 107.988 93.3 109.7C93.3 111.412 94.6879 112.8 96.4 112.8Z" fill="#B27946"/>
<path d="M53.7 100.6C55.4121 100.6 56.8 99.212 56.8 97.4999C56.8 95.7878 55.4121 94.3999 53.7 94.3999C51.9879 94.3999 50.6 95.7878 50.6 97.4999C50.6 99.212 51.9879 100.6 53.7 100.6Z" fill="#ED6E55"/>
<path d="M114.6 95.9998H76.6V57.9998C76.6 56.6998 76.1 55.4998 75.1 54.5998C74.2 53.6998 72.9 53.2998 71.7 53.3998C47.7 55.1998 29.4 76.2998 30.9 100.4C32.3 122.6 50.1 140.4 72.3 141.8C73.2 141.9 74.1 141.9 75.1 141.9C98 141.9 117.6 124.1 119.3 101C119.4 99.6998 119 98.4998 118.1 97.5998C117.1 96.4998 115.8 95.9998 114.6 95.9998ZM72.4 138.6C51.7 137.3 35.2 120.8 33.9 100.1C32.5 77.6998 49.5 58.0998 71.9 56.3998C72.3 56.3998 72.7 56.4998 73 56.7998C73.3 57.0998 73.5 57.4998 73.5 57.8998V62.3998C54.9 63.1998 39.9 78.5998 39.9 97.4998C39.9 116.9 55.6 132.6 75 132.6C91.4 132.6 105.5 121.4 109.2 105.5L106.2 104.8C102.8 119.4 90 129.6 75 129.6C57.3 129.6 43 115.2 43 97.5998C43 92.8998 44.1 88.3998 45.9 84.3998C46.1 84.5998 46.3 84.6998 46.5 84.9998C47.3 85.7998 48.5 86.9998 50.6 86.9998C52.8 86.9998 53.9 85.8998 54.7 84.9998C55.4 84.2998 55.8 83.8998 56.7 83.8998V80.7998C54.5 80.7998 53.4 81.8998 52.6 82.7998C51.9 83.4998 51.5 83.8998 50.6 83.8998C49.7 83.8998 49.4 83.5998 48.6 82.7998C48.2 82.3998 47.8 81.9998 47.2 81.5998C52.5 72.3998 62.2 66.0998 73.4 65.5998V98.9998H107C107 99.9998 106.9 100.9 106.8 101.8L109.8 102.2C109.9 101.1 110 99.9998 110.1 98.8998H114.6C115 98.8998 115.4 99.0998 115.7 99.3998C116 99.6998 116.1 100.1 116.1 100.5C114.4 123 94.8 140 72.4 138.6Z" fill="#020203"/>
<path d="M64.3 115.8C61.8 115.8 59.7 117.9 59.7 120.4C59.7 122.9 61.8 125 64.3 125C66.8 125 68.9 122.9 68.9 120.4C68.9 117.9 66.9 115.8 64.3 115.8ZM64.3 121.9C63.5 121.9 62.8 121.2 62.8 120.4C62.8 119.6 63.5 118.9 64.3 118.9C65.1 118.9 65.8 119.6 65.8 120.4C65.8 121.2 65.2 121.9 64.3 121.9Z" fill="#020203"/>
<path d="M85.7 82.2001C85.7 84.7001 87.8 86.8001 90.3 86.8001C92.8 86.8001 94.9 84.7001 94.9 82.2001C94.9 79.7001 92.8 77.6001 90.3 77.6001C87.8 77.6001 85.7 79.7001 85.7 82.2001ZM91.8 82.2001C91.8 83.0001 91.1 83.7001 90.3 83.7001C89.5 83.7001 88.8 83.0001 88.8 82.2001C88.8 81.4001 89.5 80.7001 90.3 80.7001C91.1 80.7001 91.8 81.4001 91.8 82.2001Z" fill="#020203"/>
<path d="M68.9 96C66.4 96 64.3 98.1 64.3 100.6C64.3 103.1 66.4 105.2 68.9 105.2C71.4 105.2 73.5 103.1 73.5 100.6C73.5 98 71.4 96 68.9 96ZM68.9 102.1C68.1 102.1 67.4 101.4 67.4 100.6C67.4 99.8 68.1 99.1 68.9 99.1C69.7 99.1 70.4 99.8 70.4 100.6C70.4 101.4 69.8 102.1 68.9 102.1Z" fill="#020203"/>
<path d="M96.4 105.1C93.9 105.1 91.8 107.2 91.8 109.7C91.8 112.2 93.9 114.3 96.4 114.3C98.9 114.3 101 112.2 101 109.7C101 107.2 98.9 105.1 96.4 105.1ZM96.4 111.2C95.6 111.2 94.9 110.5 94.9 109.7C94.9 108.9 95.6 108.2 96.4 108.2C97.2 108.2 97.9 108.9 97.9 109.7C97.9 110.5 97.2 111.2 96.4 111.2Z" fill="#020203"/>
<path d="M53.7 92.8999C51.2 92.8999 49.1 94.9999 49.1 97.4999C49.1 99.9999 51.2 102.1 53.7 102.1C56.2 102.1 58.3 99.9999 58.3 97.4999C58.3 94.9999 56.2 92.8999 53.7 92.8999ZM53.7 98.9999C52.9 98.9999 52.2 98.2999 52.2 97.4999C52.2 96.6999 52.9 95.9999 53.7 95.9999C54.5 95.9999 55.2 96.6999 55.2 97.4999C55.2 98.2999 54.5 98.9999 53.7 98.9999Z" fill="#020203"/>
<path d="M82.6 121.9C81.7 121.9 81.4 121.6 80.6 120.8C79.8 120 78.6 118.8 76.5 118.8V121.9C77.4 121.9 77.7 122.2 78.5 123C79.3 123.8 80.5 125 82.6 125C84.7 125 85.9 123.9 86.7 123C87.4 122.3 87.8 121.9 88.7 121.9V118.8C86.5 118.8 85.4 119.9 84.6 120.8C83.9 121.6 83.5 121.9 82.6 121.9Z" fill="#020203"/>
<path d="M124.9 87.6999C124.8 87.2999 124.8 86.8999 124.7 86.5999C121 66.7999 105.8 51.5999 86 47.8999C85.6 47.7999 85.2 47.7999 84.9 47.6999C83.6 47.4999 82.3 47.8999 81.3 48.7999C80.3 49.6999 79.7 50.8999 79.7 52.2999V92.9999H120.4C121.7 92.9999 123 92.3999 123.9 91.3999C124.7 90.2999 125.1 88.9999 124.9 87.6999ZM121.5 89.2999C121.2 89.5999 120.8 89.7999 120.3 89.7999H115.9C114.1 74.8999 103.4 62.0999 88.9 57.7999L88 60.6999C92.6 62.0999 96.8 64.3999 100.4 67.3999C98.9 68.1999 97.9 69.6999 97.9 71.4999C97.9 73.9999 100 76.0999 102.5 76.0999C104.2 76.0999 105.6 75.1999 106.4 73.7999C109.8 78.4999 112 83.8999 112.8 89.7999H82.6V72.1999C82.7 72.2999 82.9 72.4999 83 72.5999C83.8 73.3999 85 74.5999 87.1 74.5999C89.2 74.5999 90.4 73.4999 91.2 72.5999C91.9 71.8999 92.3 71.4999 93.2 71.4999V68.3999C91 68.3999 89.9 69.4999 89.1 70.3999C88.4 71.0999 88 71.4999 87.1 71.4999C86.2 71.4999 85.9 71.1999 85.1 70.3999C84.5 69.7999 83.7 68.9999 82.5 68.5999V59.4999C83.4 59.5999 84.3 59.7999 85.2 59.9999L85.8 56.9999C84.7 56.7999 83.6 56.5999 82.4 56.4999V52.0999C82.4 51.5999 82.6 51.1999 82.9 50.8999C83.2 50.5999 83.7 50.4999 84.1 50.4999C84.5 50.4999 84.8 50.5999 85.1 50.6999C103.7 54.1999 117.9 68.3999 121.4 86.9999C121.5 87.2999 121.5 87.6999 121.6 87.9999C121.9 88.4999 121.8 88.9999 121.5 89.2999ZM102.5 69.9999C103.3 69.9999 104 70.6999 104 71.4999C104 72.2999 103.3 72.9999 102.5 72.9999C101.7 72.9999 101 72.2999 101 71.4999C101 70.6999 101.6 69.9999 102.5 69.9999Z" fill="#020203"/>
<path d="M107.1 80.6997H104V83.7997H107.1V80.6997Z" fill="#020203"/>
<path d="M101 83.6997H97.9V86.7997H101V83.6997Z" fill="#020203"/>
<path d="M88.8 103.6H85.7V106.7H88.8V103.6Z" fill="#020203"/>
<path d="M79.6 108.2H76.5V111.3H79.6V108.2Z" fill="#020203"/>
<path d="M61.3 105.1H58.2V108.2H61.3V105.1Z" fill="#020203"/>
<path d="M70.5 73.1001H67.4V76.2001H70.5V73.1001Z" fill="#020203"/>
<path d="M65.9 83.6997H62.8V86.7997H65.9V83.6997Z" fill="#020203"/>
<path d="M53.7 109.7H50.6V112.8H53.7V109.7Z" fill="#020203"/>
<path d="M139.323 85.1921V95.8779H130.167V66.4702H142.727C145.858 66.4702 148.235 66.8293 149.858 67.5474C151.496 68.2656 152.788 69.3643 153.736 70.8437C154.699 72.3231 155.18 73.982 155.18 75.8204C155.18 78.6211 154.203 80.8832 152.25 82.6068C150.296 84.3303 147.69 85.1921 144.429 85.1921H139.323ZM139.194 78.8796H142.21C144.867 78.8796 146.196 77.903 146.196 75.9496C146.196 74.1112 144.968 73.192 142.512 73.192H139.194V78.8796ZM166.857 65.5438V72.3518H158.261V65.5438H166.857ZM166.857 73.9676V95.8779H158.261V73.9676H166.857ZM189.198 90.4273V95.8779H169.873V91.1167L179.115 79.2459C178.009 79.289 177.262 79.3105 176.875 79.3105H170.627V73.9676H188.853V78.578L179.417 90.4704L180.559 90.4488C180.788 90.4345 180.997 90.4273 181.183 90.4273H189.198ZM210.009 90.4273V95.8779H190.684V91.1167L199.927 79.2459C198.821 79.289 198.074 79.3105 197.686 79.3105H191.438V73.9676H209.665V78.578L200.228 90.4704L201.37 90.4488C201.6 90.4345 201.808 90.4273 201.995 90.4273H210.009ZM235.108 95.8779H226.922C226.72 94.9444 226.62 93.9246 226.62 92.8187C225.069 95.1598 222.72 96.3304 219.575 96.3304C216.99 96.3304 215.051 95.6697 213.758 94.3483C212.48 93.0269 211.841 91.5117 211.841 89.8025C211.841 87.4901 212.889 85.6229 214.986 84.201C217.097 82.7648 220.832 81.903 226.189 81.6157V81.1202C226.189 80.1579 225.966 79.5188 225.521 79.2028C225.09 78.8868 224.451 78.7288 223.604 78.7288C221.622 78.7288 220.516 79.526 220.286 81.1202L212.444 80.3877C213.564 75.806 217.378 73.5152 223.884 73.5152C225.65 73.5152 227.273 73.6947 228.753 74.0538C230.232 74.3985 231.403 74.9443 232.264 75.6911C233.126 76.438 233.701 77.2279 233.988 78.061C234.29 78.894 234.44 80.4954 234.44 82.8653V91.6122C234.44 93.2783 234.663 94.7002 235.108 95.8779ZM226.189 85.6229C222.527 86.0107 220.695 87.1813 220.695 89.1346C220.695 90.456 221.421 91.1167 222.871 91.1167C223.79 91.1167 224.573 90.8438 225.22 90.298C225.866 89.7522 226.189 88.5458 226.189 86.6786V85.6229Z" fill="black"/>
<path d="M139.323 85.1921V84.6921H138.823V85.1921H139.323ZM139.323 95.8779V96.3779H139.823V95.8779H139.323ZM130.167 95.8779H129.667V96.3779H130.167V95.8779ZM130.167 66.4702V65.9702H129.667V66.4702H130.167ZM149.858 67.5474L149.656 68.0047L149.658 68.0053L149.858 67.5474ZM153.736 70.8437L153.315 71.1135L153.317 71.1163L153.736 70.8437ZM139.194 78.8796H138.694V79.3796H139.194V78.8796ZM139.194 73.192V72.692H138.694V73.192H139.194ZM138.823 85.1921V95.8779H139.823V85.1921H138.823ZM139.323 95.3779H130.167V96.3779H139.323V95.3779ZM130.667 95.8779V66.4702H129.667V95.8779H130.667ZM130.167 66.9702H142.727V65.9702H130.167V66.9702ZM142.727 66.9702C145.834 66.9702 148.128 67.3286 149.656 68.0047L150.061 67.0902C148.343 66.33 145.883 65.9702 142.727 65.9702V66.9702ZM149.658 68.0053C151.206 68.6846 152.422 69.7187 153.315 71.1135L154.157 70.5739C153.155 69.01 151.785 67.8466 150.059 67.0896L149.658 68.0053ZM153.317 71.1163C154.224 72.5111 154.68 74.0745 154.68 75.8204H155.68C155.68 73.8894 155.173 72.1351 154.155 70.5711L153.317 71.1163ZM154.68 75.8204C154.68 78.4898 153.756 80.611 151.919 82.2318L152.581 82.9817C154.65 81.1555 155.68 78.7524 155.68 75.8204H154.68ZM151.919 82.2318C150.078 83.856 147.6 84.6921 144.429 84.6921V85.6921C147.78 85.6921 150.515 84.8046 152.581 82.9817L151.919 82.2318ZM144.429 84.6921H139.323V85.6921H144.429V84.6921ZM139.194 79.3796H142.21V78.3796H139.194V79.3796ZM142.21 79.3796C143.585 79.3796 144.707 79.1295 145.496 78.55C146.313 77.9493 146.696 77.0521 146.696 75.9496H145.696C145.696 76.8005 145.415 77.3683 144.903 77.7443C144.363 78.1414 143.492 78.3796 142.21 78.3796V79.3796ZM146.696 75.9496C146.696 74.9081 146.34 74.0544 145.574 73.4811C144.836 72.9282 143.788 72.692 142.512 72.692V73.692C143.692 73.692 144.486 73.9154 144.975 74.2817C145.437 74.6276 145.696 75.1528 145.696 75.9496H146.696ZM142.512 72.692H139.194V73.692H142.512V72.692ZM138.694 73.192V78.8796H139.694V73.192H138.694ZM166.857 65.5438H167.357V65.0438H166.857V65.5438ZM166.857 72.3518V72.8518H167.357V72.3518H166.857ZM158.261 72.3518H157.761V72.8518H158.261V72.3518ZM158.261 65.5438V65.0438H157.761V65.5438H158.261ZM166.857 73.9676H167.357V73.4676H166.857V73.9676ZM166.857 95.8779V96.3779H167.357V95.8779H166.857ZM158.261 95.8779H157.761V96.3779H158.261V95.8779ZM158.261 73.9676V73.4676H157.761V73.9676H158.261ZM166.357 65.5438V72.3518H167.357V65.5438H166.357ZM166.857 71.8518H158.261V72.8518H166.857V71.8518ZM158.761 72.3518V65.5438H157.761V72.3518H158.761ZM158.261 66.0438H166.857V65.0438H158.261V66.0438ZM166.357 73.9676V95.8779H167.357V73.9676H166.357ZM166.857 95.3779H158.261V96.3779H166.857V95.3779ZM158.761 95.8779V73.9676H157.761V95.8779H158.761ZM158.261 74.4676H166.857V73.4676H158.261V74.4676ZM189.198 90.4273H189.698V89.9273H189.198V90.4273ZM189.198 95.8779V96.3779H189.698V95.8779H189.198ZM169.873 95.8779H169.373V96.3779H169.873V95.8779ZM169.873 91.1167L169.478 90.8095L169.373 90.945V91.1167H169.873ZM179.115 79.2459L179.51 79.5531L180.171 78.7044L179.096 78.7463L179.115 79.2459ZM170.627 79.3105H170.127V79.8105H170.627V79.3105ZM170.627 73.9676V73.4676H170.127V73.9676H170.627ZM188.853 73.9676H189.353V73.4676H188.853V73.9676ZM188.853 78.578L189.245 78.8888L189.353 78.7523V78.578H188.853ZM179.417 90.4704L179.025 90.1596L178.366 90.9903L179.426 90.9703L179.417 90.4704ZM180.559 90.4488L180.568 90.9487L180.579 90.9485L180.59 90.9478L180.559 90.4488ZM188.698 90.4273V95.8779H189.698V90.4273H188.698ZM189.198 95.3779H169.873V96.3779H189.198V95.3779ZM170.373 95.8779V91.1167H169.373V95.8779H170.373ZM170.267 91.4239L179.51 79.5531L178.721 78.9387L169.478 90.8095L170.267 91.4239ZM179.096 78.7463C177.989 78.7894 177.251 78.8105 176.875 78.8105V79.8105C177.274 79.8105 178.03 79.7886 179.135 79.7455L179.096 78.7463ZM176.875 78.8105H170.627V79.8105H176.875V78.8105ZM171.127 79.3105V73.9676H170.127V79.3105H171.127ZM170.627 74.4676H188.853V73.4676H170.627V74.4676ZM188.353 73.9676V78.578H189.353V73.9676H188.353ZM188.461 78.2672L179.025 90.1596L179.809 90.7812L189.245 78.8888L188.461 78.2672ZM179.426 90.9703L180.568 90.9487L180.549 89.9489L179.407 89.9705L179.426 90.9703ZM180.59 90.9478C180.812 90.934 181.009 90.9273 181.183 90.9273V89.9273C180.984 89.9273 180.765 89.9349 180.527 89.9498L180.59 90.9478ZM181.183 90.9273H189.198V89.9273H181.183V90.9273ZM210.009 90.4273H210.509V89.9273H210.009V90.4273ZM210.009 95.8779V96.3779H210.509V95.8779H210.009ZM190.684 95.8779H190.184V96.3779H190.684V95.8779ZM190.684 91.1167L190.29 90.8095L190.184 90.945V91.1167H190.684ZM199.927 79.2459L200.321 79.5531L200.982 78.7044L199.907 78.7463L199.927 79.2459ZM191.438 79.3105H190.938V79.8105H191.438V79.3105ZM191.438 73.9676V73.4676H190.938V73.9676H191.438ZM209.665 73.9676H210.165V73.4676H209.665V73.9676ZM209.665 78.578L210.056 78.8888L210.165 78.7523V78.578H209.665ZM200.228 90.4704L199.837 90.1596L199.178 90.9903L200.238 90.9703L200.228 90.4704ZM201.37 90.4488L201.38 90.9487L201.391 90.9485L201.401 90.9478L201.37 90.4488ZM209.509 90.4273V95.8779H210.509V90.4273H209.509ZM210.009 95.3779H190.684V96.3779H210.009V95.3779ZM191.184 95.8779V91.1167H190.184V95.8779H191.184ZM191.079 91.4239L200.321 79.5531L199.532 78.9387L190.29 90.8095L191.079 91.4239ZM199.907 78.7463C198.8 78.7894 198.063 78.8105 197.686 78.8105V79.8105C198.085 79.8105 198.842 79.7886 199.946 79.7455L199.907 78.7463ZM197.686 78.8105H191.438V79.8105H197.686V78.8105ZM191.938 79.3105V73.9676H190.938V79.3105H191.938ZM191.438 74.4676H209.665V73.4676H191.438V74.4676ZM209.165 73.9676V78.578H210.165V73.9676H209.165ZM209.273 78.2672L199.837 90.1596L200.62 90.7812L210.056 78.8888L209.273 78.2672ZM200.238 90.9703L201.38 90.9487L201.361 89.9489L200.219 89.9705L200.238 90.9703ZM201.401 90.9478C201.623 90.934 201.821 90.9273 201.995 90.9273V89.9273C201.796 89.9273 201.577 89.9349 201.339 89.9498L201.401 90.9478ZM201.995 90.9273H210.009V89.9273H201.995V90.9273ZM235.108 95.8779V96.3779H235.832L235.576 95.7011L235.108 95.8779ZM226.922 95.8779L226.433 95.9832L226.518 96.3779H226.922V95.8779ZM226.62 92.8187H227.12V91.1588L226.203 92.5425L226.62 92.8187ZM213.758 94.3483L213.399 94.6959L213.401 94.6979L213.758 94.3483ZM214.986 84.201L215.267 84.6149L215.267 84.6144L214.986 84.201ZM226.189 81.6157L226.216 82.115L226.689 82.0896V81.6157H226.189ZM225.521 79.2028L225.225 79.6061L225.232 79.6106L225.521 79.2028ZM220.286 81.1202L220.239 81.6181L220.713 81.6623L220.781 81.1916L220.286 81.1202ZM212.444 80.3877L211.958 80.269L211.821 80.8317L212.397 80.8856L212.444 80.3877ZM228.753 74.0538L228.635 74.5397L228.639 74.5407L228.753 74.0538ZM233.988 78.061L233.515 78.224L233.518 78.2312L233.988 78.061ZM226.189 85.6229H226.689V85.0672L226.136 85.1257L226.189 85.6229ZM225.22 90.298L224.897 89.916L225.22 90.298ZM235.108 95.3779H226.922V96.3779H235.108V95.3779ZM227.41 95.7727C227.218 94.8786 227.12 93.8946 227.12 92.8187H226.12C226.12 93.9546 226.223 95.0101 226.433 95.9832L227.41 95.7727ZM226.203 92.5425C224.757 94.7252 222.576 95.8304 219.575 95.8304V96.8304C222.865 96.8304 225.381 95.5944 227.037 93.0948L226.203 92.5425ZM219.575 95.8304C217.07 95.8304 215.282 95.1908 214.116 93.9987L213.401 94.6979C214.82 96.1485 216.91 96.8304 219.575 96.8304V95.8304ZM214.117 94.0007C212.922 92.7648 212.341 91.3715 212.341 89.8025H211.341C211.341 91.6518 212.038 93.2891 213.399 94.6959L214.117 94.0007ZM212.341 89.8025C212.341 87.6737 213.292 85.9542 215.267 84.6149L214.706 83.7872C212.487 85.2917 211.341 87.3065 211.341 89.8025H212.341ZM215.267 84.6144C217.257 83.261 220.869 82.4017 226.216 82.115L226.162 81.1165C220.794 81.4043 216.938 82.2685 214.705 83.7876L215.267 84.6144ZM226.689 81.6157V81.1202H225.689V81.6157H226.689ZM226.689 81.1202C226.689 80.1164 226.462 79.2577 225.811 78.795L225.232 79.6106C225.47 79.7799 225.689 80.1995 225.689 81.1202H226.689ZM225.817 78.7996C225.263 78.3935 224.5 78.2288 223.604 78.2288V79.2288C224.403 79.2288 224.918 79.3801 225.226 79.606L225.817 78.7996ZM223.604 78.2288C222.553 78.2288 221.664 78.439 220.995 78.9211C220.313 79.4133 219.922 80.1438 219.791 81.0489L220.781 81.1916C220.88 80.5024 221.157 80.0372 221.58 79.7323C222.017 79.4173 222.672 79.2288 223.604 79.2288V78.2288ZM220.332 80.6224L212.49 79.8899L212.397 80.8856L220.239 81.6181L220.332 80.6224ZM212.93 80.5065C213.46 78.3365 214.617 76.7342 216.402 75.6619C218.203 74.58 220.682 74.0152 223.884 74.0152V73.0152C220.579 73.0152 217.899 73.5958 215.887 74.8047C213.858 76.0233 212.548 77.8572 211.958 80.269L212.93 80.5065ZM223.884 74.0152C225.617 74.0152 227.2 74.1913 228.635 74.5397L228.871 73.5679C227.347 73.1981 225.684 73.0152 223.884 73.0152V74.0152ZM228.639 74.5407C230.065 74.8729 231.154 75.39 231.937 76.069L232.592 75.3133C231.652 74.4985 230.4 73.9241 228.866 73.5668L228.639 74.5407ZM231.937 76.069C232.751 76.7748 233.264 77.4951 233.515 78.224L234.461 77.898C234.138 76.9608 233.501 76.1012 232.592 75.3133L231.937 76.069ZM233.518 78.2312C233.786 78.9705 233.94 80.4873 233.94 82.8653H234.94C234.94 80.5036 234.794 78.8176 234.458 77.8907L233.518 78.2312ZM233.94 82.8653V91.6122H234.94V82.8653H233.94ZM233.94 91.6122C233.94 93.3203 234.168 94.8055 234.641 96.0547L235.576 95.7011C235.158 94.5949 234.94 93.2363 234.94 91.6122H233.94ZM226.136 85.1257C224.275 85.3228 222.811 85.7239 221.799 86.3704C220.759 87.0353 220.195 87.9658 220.195 89.1346H221.195C221.195 88.3502 221.547 87.7187 222.338 87.213C223.158 86.689 224.441 86.3108 226.242 86.1202L226.136 85.1257ZM220.195 89.1346C220.195 89.885 220.403 90.5361 220.903 90.9908C221.393 91.4375 222.08 91.6167 222.871 91.6167V90.6167C222.212 90.6167 221.811 90.4656 221.576 90.2515C221.35 90.0456 221.195 89.7056 221.195 89.1346H220.195ZM222.871 91.6167C223.898 91.6167 224.798 91.3088 225.542 90.68L224.897 89.916C224.349 90.3788 223.683 90.6167 222.871 90.6167V91.6167ZM225.542 90.68C225.972 90.3167 226.254 89.7705 226.43 89.1132C226.607 88.4525 226.689 87.6366 226.689 86.6786H225.689C225.689 87.5878 225.61 88.3087 225.464 88.8545C225.317 89.4036 225.113 89.7335 224.897 89.916L225.542 90.68ZM226.689 86.6786V85.6229H225.689V86.6786H226.689Z" fill="#F39200"/>
<path d="M191.484 109.093V127.208H184.555V109.093H179.617V103.386H196.423V109.093H191.484ZM205.236 102.636V108.151H198.273V102.636H205.236ZM205.236 109.46V127.208H198.273V109.46H205.236ZM235.812 127.208H229.058V116.109C229.058 115.364 228.948 114.847 228.727 114.556C228.517 114.253 228.139 114.102 227.592 114.102C226.289 114.102 225.638 115.05 225.638 116.947V127.208H218.953V116.109C218.953 114.69 218.407 113.98 217.313 113.98C216.184 113.98 215.62 114.69 215.62 116.109V127.208H208.918V109.46H215.166V111.851C216.283 110.012 217.906 109.093 220.035 109.093C222.327 109.093 223.991 110.012 225.027 111.851C226.179 110.012 227.947 109.093 230.332 109.093C231.472 109.093 232.473 109.332 233.334 109.809C234.207 110.286 234.835 110.902 235.219 111.659C235.614 112.403 235.812 113.561 235.812 115.132V127.208ZM251.222 120.838L257.714 121.275C257.33 123.02 256.347 124.509 254.765 125.743C253.194 126.964 251.065 127.575 248.378 127.575C245.387 127.575 243.002 126.714 241.222 124.992C239.442 123.259 238.552 121.112 238.552 118.552C238.552 115.9 239.43 113.66 241.187 111.833C242.944 110.007 245.289 109.093 248.221 109.093C251.059 109.093 253.351 109.954 255.097 111.676C256.853 113.398 257.732 115.742 257.732 118.709C257.732 118.954 257.726 119.291 257.714 119.722H245.83C245.853 120.838 246.051 121.67 246.423 122.217C246.795 122.752 247.505 123.02 248.552 123.02C250.065 123.02 250.955 122.293 251.222 120.838ZM250.769 116.231C250.757 115.033 250.513 114.23 250.036 113.823C249.57 113.404 248.988 113.194 248.29 113.194C246.638 113.194 245.812 114.207 245.812 116.231H250.769Z" fill="black"/>
<path d="M191.484 109.093V108.593H190.984V109.093H191.484ZM191.484 127.208V127.708H191.984V127.208H191.484ZM184.555 127.208H184.055V127.708H184.555V127.208ZM184.555 109.093H185.055V108.593H184.555V109.093ZM179.617 109.093H179.117V109.593H179.617V109.093ZM179.617 103.386V102.886H179.117V103.386H179.617ZM196.423 103.386H196.923V102.886H196.423V103.386ZM196.423 109.093V109.593H196.923V109.093H196.423ZM190.984 109.093V127.208H191.984V109.093H190.984ZM191.484 126.708H184.555V127.708H191.484V126.708ZM185.055 127.208V109.093H184.055V127.208H185.055ZM184.555 108.593H179.617V109.593H184.555V108.593ZM180.117 109.093V103.386H179.117V109.093H180.117ZM179.617 103.886H196.423V102.886H179.617V103.886ZM195.923 103.386V109.093H196.923V103.386H195.923ZM196.423 108.593H191.484V109.593H196.423V108.593ZM205.236 102.636H205.736V102.136H205.236V102.636ZM205.236 108.151V108.651H205.736V108.151H205.236ZM198.273 108.151H197.773V108.651H198.273V108.151ZM198.273 102.636V102.136H197.773V102.636H198.273ZM205.236 109.46H205.736V108.96H205.236V109.46ZM205.236 127.208V127.708H205.736V127.208H205.236ZM198.273 127.208H197.773V127.708H198.273V127.208ZM198.273 109.46V108.96H197.773V109.46H198.273ZM204.736 102.636V108.151H205.736V102.636H204.736ZM205.236 107.651H198.273V108.651H205.236V107.651ZM198.773 108.151V102.636H197.773V108.151H198.773ZM198.273 103.136H205.236V102.136H198.273V103.136ZM204.736 109.46V127.208H205.736V109.46H204.736ZM205.236 126.708H198.273V127.708H205.236V126.708ZM198.773 127.208V109.46H197.773V127.208H198.773ZM198.273 109.96H205.236V108.96H198.273V109.96ZM235.812 127.208V127.708H236.312V127.208H235.812ZM229.058 127.208H228.558V127.708H229.058V127.208ZM228.727 114.556L228.315 114.84L228.322 114.849L228.328 114.858L228.727 114.556ZM225.638 127.208V127.708H226.138V127.208H225.638ZM218.953 127.208H218.453V127.708H218.953V127.208ZM215.62 127.208V127.708H216.12V127.208H215.62ZM208.918 127.208H208.418V127.708H208.918V127.208ZM208.918 109.46V108.96H208.418V109.46H208.918ZM215.166 109.46H215.666V108.96H215.166V109.46ZM215.166 111.851H214.666V113.637L215.594 112.11L215.166 111.851ZM225.027 111.851L224.591 112.096L225.004 112.829L225.45 112.116L225.027 111.851ZM233.334 109.809L233.092 110.246L233.094 110.248L233.334 109.809ZM235.219 111.659L234.773 111.885L234.777 111.893L235.219 111.659ZM235.812 126.708H229.058V127.708H235.812V126.708ZM229.558 127.208V116.109H228.558V127.208H229.558ZM229.558 116.109C229.558 115.349 229.452 114.684 229.125 114.253L228.328 114.858C228.443 115.009 228.558 115.379 228.558 116.109H229.558ZM229.138 114.271C228.795 113.777 228.219 113.602 227.592 113.602V114.602C228.059 114.602 228.239 114.73 228.315 114.84L229.138 114.271ZM227.592 113.602C226.801 113.602 226.147 113.9 225.714 114.53C225.305 115.126 225.138 115.957 225.138 116.947H226.138C226.138 116.04 226.296 115.449 226.538 115.096C226.757 114.778 227.08 114.602 227.592 114.602V113.602ZM225.138 116.947V127.208H226.138V116.947H225.138ZM225.638 126.708H218.953V127.708H225.638V126.708ZM219.453 127.208V116.109H218.453V127.208H219.453ZM219.453 116.109C219.453 115.349 219.309 114.687 218.939 114.207C218.55 113.702 217.977 113.48 217.313 113.48V114.48C217.743 114.48 217.99 114.613 218.147 114.817C218.324 115.047 218.453 115.45 218.453 116.109H219.453ZM217.313 113.48C216.637 113.48 216.052 113.698 215.652 114.201C215.269 114.682 215.12 115.346 215.12 116.109H216.12C216.12 115.452 216.253 115.052 216.435 114.823C216.599 114.617 216.86 114.48 217.313 114.48V113.48ZM215.12 116.109V127.208H216.12V116.109H215.12ZM215.62 126.708H208.918V127.708H215.62V126.708ZM209.418 127.208V109.46H208.418V127.208H209.418ZM208.918 109.96H215.166V108.96H208.918V109.96ZM214.666 109.46V111.851H215.666V109.46H214.666ZM215.594 112.11C216.621 110.419 218.083 109.593 220.035 109.593V108.593C217.729 108.593 215.945 109.605 214.739 111.591L215.594 112.11ZM220.035 109.593C222.166 109.593 223.653 110.431 224.591 112.096L225.462 111.605C224.329 109.594 222.489 108.593 220.035 108.593V109.593ZM225.45 112.116C226.5 110.44 228.099 109.593 230.332 109.593V108.593C227.795 108.593 225.857 109.584 224.603 111.585L225.45 112.116ZM230.332 109.593C231.401 109.593 232.316 109.816 233.092 110.246L233.576 109.371C232.63 108.847 231.544 108.593 230.332 108.593V109.593ZM233.094 110.248C233.894 110.685 234.442 111.233 234.773 111.885L235.665 111.432C235.227 110.571 234.519 109.887 233.574 109.37L233.094 110.248ZM234.777 111.893C235.114 112.527 235.312 113.584 235.312 115.132H236.312C236.312 113.538 236.115 112.28 235.66 111.424L234.777 111.893ZM235.312 115.132V127.208H236.312V115.132H235.312ZM251.222 120.838L251.256 120.34L250.811 120.31L250.731 120.748L251.222 120.838ZM257.714 121.275L258.203 121.382L258.328 120.815L257.748 120.776L257.714 121.275ZM254.765 125.743L255.072 126.137L255.072 126.137L254.765 125.743ZM241.222 124.992L240.873 125.35L240.875 125.351L241.222 124.992ZM241.187 111.833L240.827 111.487L241.187 111.833ZM255.097 111.676L254.745 112.032L254.747 112.033L255.097 111.676ZM257.714 119.722V120.222H258.201L258.214 119.735L257.714 119.722ZM245.83 119.722V119.222H245.319L245.33 119.732L245.83 119.722ZM246.423 122.217L246.01 122.499L246.012 122.503L246.423 122.217ZM250.769 116.231V116.731H251.273L251.268 116.226L250.769 116.231ZM250.036 113.823L249.701 114.195L249.711 114.203L250.036 113.823ZM245.812 116.231H245.312V116.731H245.812V116.231ZM251.189 121.337L257.681 121.774L257.748 120.776L251.256 120.34L251.189 121.337ZM257.226 121.167C256.87 122.785 255.96 124.177 254.458 125.348L255.072 126.137C256.735 124.841 257.791 123.255 258.203 121.382L257.226 121.167ZM254.458 125.348C253.001 126.481 250.993 127.075 248.378 127.075V128.075C251.138 128.075 253.387 127.448 255.072 126.137L254.458 125.348ZM248.378 127.075C245.489 127.075 243.238 126.246 241.57 124.633L240.875 125.351C242.767 127.182 245.286 128.075 248.378 128.075V127.075ZM241.571 124.634C239.891 122.998 239.052 120.982 239.052 118.552H238.052C238.052 121.242 238.993 123.519 240.873 125.35L241.571 124.634ZM239.052 118.552C239.052 116.022 239.885 113.909 241.548 112.18L240.827 111.487C238.976 113.411 238.052 115.777 238.052 118.552H239.052ZM241.548 112.18C243.195 110.467 245.401 109.593 248.221 109.593V108.593C245.176 108.593 242.693 109.546 240.827 111.487L241.548 112.18ZM248.221 109.593C250.95 109.593 253.109 110.417 254.745 112.032L255.448 111.32C253.594 109.491 251.168 108.593 248.221 108.593V109.593ZM254.747 112.033C256.388 113.642 257.232 115.847 257.232 118.709H258.232C258.232 115.638 257.319 113.154 255.447 111.319L254.747 112.033ZM257.232 118.709C257.232 118.947 257.226 119.279 257.215 119.708L258.214 119.735C258.226 119.303 258.232 118.96 258.232 118.709H257.232ZM257.714 119.222H245.83V120.222H257.714V119.222ZM245.33 119.732C245.354 120.886 245.557 121.834 246.01 122.499L246.836 121.936C246.544 121.507 246.352 120.791 246.329 119.711L245.33 119.732ZM246.012 122.503C246.524 123.238 247.443 123.52 248.552 123.52V122.52C247.567 122.52 247.066 122.267 246.833 121.932L246.012 122.503ZM248.552 123.52C249.387 123.52 250.111 123.319 250.67 122.862C251.231 122.404 251.565 121.739 251.714 120.929L250.731 120.748C250.612 121.393 250.367 121.818 250.038 122.087C249.707 122.358 249.23 122.52 248.552 122.52V123.52ZM251.268 116.226C251.257 115.003 251.014 114 250.36 113.442L249.711 114.203C250.012 114.46 250.257 115.063 250.269 116.236L251.268 116.226ZM250.37 113.451C249.802 112.94 249.097 112.694 248.29 112.694V113.694C248.88 113.694 249.338 113.868 249.701 114.194L250.37 113.451ZM248.29 112.694C247.357 112.694 246.577 112.985 246.044 113.638C245.528 114.27 245.312 115.164 245.312 116.231H246.312C246.312 115.274 246.509 114.649 246.819 114.27C247.113 113.91 247.571 113.694 248.29 113.694V112.694ZM245.812 116.731H250.769V115.731H245.812V116.731Z" fill="#F39200"/>
</svg>
